<svg width="44" height="44" viewBox="0 0 44 44" fill="none" xmlns="http://www.w3.org/2000/svg">
<path fill-rule="evenodd" clip-rule="evenodd" d="M3.66675 23.8333C3.66675 27.8834 6.94999 31.1667 11.0001 31.1667H11.3607C12.278 31.1667 13.1621 31.5105 13.8383 32.1304L19.2084 37.053C20.2237 37.9837 21.551 38.5 22.9283 38.5C25.2257 38.5 27.4072 37.0363 27.977 34.6138C28.5825 32.0393 29.3334 27.6982 29.3334 22C29.3334 16.3018 28.5825 11.9607 27.977 9.38618C27.4072 6.9637 25.2257 5.5 22.9283 5.5C21.551 5.5 20.2237 6.01629 19.2084 6.94698L13.8383 11.8696C13.1621 12.4895 12.278 12.8333 11.3607 12.8333H11.0001C6.94999 12.8333 3.66675 16.1166 3.66675 20.1667V23.8333ZM11.0001 27.5C8.97504 27.5 7.33341 25.8584 7.33341 23.8333V20.1667C7.33341 18.1416 8.97504 16.5 11.0001 16.5H11.3607C13.1954 16.5 14.9635 15.8122 16.316 14.5725L21.6861 9.64988C22.0251 9.33908 22.4684 9.16667 22.9283 9.16667C23.7189 9.16667 24.2705 9.64217 24.4077 10.2256C24.958 12.5655 25.6667 16.6232 25.6667 22C25.6667 27.3768 24.958 31.4345 24.4077 33.7744C24.2705 34.3578 23.7189 34.8333 22.9283 34.8333C22.4684 34.8333 22.0251 34.6609 21.6861 34.3501L16.316 29.4275C14.9635 28.1878 13.1954 27.5 11.3607 27.5H11.0001Z" fill="#0F1729"/>
<path d="M37.716 11.1761C38.6313 10.7431 39.7243 11.134 40.1573 12.0493C41.5153 14.9195 42.1629 18.488 42.1667 21.9796C42.1705 25.4713 41.5307 29.0545 40.1566 31.9522C39.7228 32.8671 38.6294 33.257 37.7146 32.8232C36.7997 32.3894 36.4097 31.296 36.8436 30.3811C37.9283 28.0937 38.5035 25.0783 38.5001 21.9836C38.4967 18.8888 37.9149 15.8832 36.8429 13.6174C36.4098 12.7022 36.8008 11.6092 37.716 11.1761Z" fill="#0F1729"/>
<path d="M32.1802 29.1398C31.2746 28.687 30.9075 27.5857 31.3603 26.6801C32.9356 23.5296 32.9356 20.4704 31.3603 17.3199C30.9075 16.4143 31.2746 15.313 32.1802 14.8602C33.0858 14.4074 34.1871 14.7745 34.6399 15.6801C36.7313 19.8629 36.7313 24.1371 34.6399 28.3199C34.1871 29.2255 33.0858 29.5926 32.1802 29.1398Z" fill="#0F1729"/>
</svg>
