<svg width="64" height="64" viewBox="0 0 64 64" fill="none" xmlns="http://www.w3.org/2000/svg">
<path fill-rule="evenodd" clip-rule="evenodd" d="M18.6667 18.6668C18.6667 11.303 24.6362 5.3335 32 5.3335C39.3638 5.3335 45.3333 11.303 45.3333 18.6668V29.3335C45.3333 36.6973 39.3638 42.6668 32 42.6668C24.6362 42.6668 18.6667 36.6973 18.6667 29.3335V18.6668ZM32 10.6668C27.5817 10.6668 24 14.2486 24 18.6668V29.3335C24 33.7518 27.5817 37.3335 32 37.3335C36.4183 37.3335 40 33.7518 40 29.3335V18.6668C40 14.2486 36.4183 10.6668 32 10.6668ZM11.9861 37.6988C13.2571 36.9548 14.8906 37.3819 15.6346 38.6529C18.9059 44.2409 25.0067 48.0002 32 48.0002C38.9933 48.0002 45.094 44.2409 48.3653 38.6529C49.1094 37.3819 50.7429 36.9548 52.0139 37.6988C53.2849 38.4429 53.712 40.0764 52.968 41.3474C49.1943 47.7935 42.4881 52.3393 34.6667 53.1895V58.6668C34.6667 60.1396 33.4728 61.3335 32 61.3335C30.5272 61.3335 29.3333 60.1396 29.3333 58.6668V53.1895C21.5119 52.3393 14.8057 47.7935 11.032 41.3474C10.2879 40.0764 10.7151 38.4429 11.9861 37.6988Z" fill="#0F1729"/>
</svg>
