<svg width="64" height="64" viewBox="0 0 64 64" fill="none" xmlns="http://www.w3.org/2000/svg">
<path fill-rule="evenodd" clip-rule="evenodd" d="M5.33331 34.6667C5.33331 40.5577 10.1089 45.3333 16 45.3333H16.5245C17.8588 45.3333 19.1447 45.8335 20.1283 46.7352L27.9394 53.8953C29.4162 55.249 31.3468 56 33.3501 56C36.6917 56 39.8649 53.871 40.6936 50.3474C41.5744 46.6026 42.6666 40.2882 42.6666 32C42.6666 23.7118 41.5744 17.3974 40.6936 13.6526C39.8649 10.129 36.6917 8 33.3501 8C31.3468 8 29.4162 8.75097 27.9394 10.1047L20.1283 17.2648C19.1447 18.1665 17.8588 18.6667 16.5245 18.6667H16C10.1089 18.6667 5.33331 23.4423 5.33331 29.3333V34.6667ZM16 40C13.0545 40 10.6666 37.6122 10.6666 34.6667V29.3333C10.6666 26.3878 13.0545 24 16 24H16.5245C19.1932 24 21.765 22.9996 23.7322 21.1963L31.5433 14.0362C32.0364 13.5841 32.6811 13.3333 33.3501 13.3333C34.5001 13.3333 35.3024 14.025 35.502 14.8736C36.3024 18.2771 37.3333 24.1793 37.3333 32C37.3333 39.8207 36.3024 45.7229 35.502 49.1264C35.3024 49.975 34.5001 50.6667 33.3501 50.6667C32.6811 50.6667 32.0364 50.4159 31.5433 49.9638L23.7322 42.8037C21.765 41.0004 19.1932 40 16.5245 40H16Z" fill="#0F1729"/>
<path d="M54.8595 16.2562C56.1908 15.6263 57.7806 16.1949 58.4105 17.5262C60.3857 21.7011 61.3277 26.8916 61.3333 31.9703C61.3388 37.0491 60.4082 42.261 58.4095 46.4759C57.7784 47.8066 56.1881 48.3738 54.8574 47.7428C53.5267 47.1118 52.9595 45.5215 53.5905 44.1907C55.1683 40.8635 56.0049 36.4775 56 31.9761C55.995 27.4746 55.1488 23.1029 53.5895 19.8071C52.9596 18.4759 53.5282 16.886 54.8595 16.2562Z" fill="#0F1729"/>
<path d="M46.8074 42.3851C45.4901 41.7265 44.9562 40.1247 45.6148 38.8074C47.9061 34.2248 47.9061 29.7752 45.6148 25.1926C44.9562 23.8753 45.4901 22.2735 46.8074 21.6149C48.1247 20.9562 49.7265 21.4902 50.3851 22.8074C53.4272 28.8915 53.4272 35.1085 50.3851 41.1926C49.7265 42.5098 48.1247 43.0438 46.8074 42.3851Z" fill="#0F1729"/>
</svg>
